# xmcd CD database file
#
# Track frame offsets:
#	183
#	13238
#	23573
#	34235
#	44603
#	54158
#	65483
#	78760
#	90015
#	101635
#	111010
#	122915
#	135455
#	145203
#	158390
#	169953
#	179635
#	191020
#	202743
#	214275
#	223733
#	232820
#
# Disc length: 3287 seconds
#
# Revision: 0
# Processed by: cddbd v1.5PL3 Copyright (c) Steve Scherf et al.
# Submitted via: CDex 1.51
#
DISCID=280cd516
DTITLE=Lee Dorsey - Can You Hear Me
DYEAR=1987
DGENRE=Blues
TTITLE0=Working In A Coalmine
TTITLE1=Can You Hear Me
TTITLE2=The Greatest Love
TTITLE3=A Mellow Good Time
TTITLE4=Mexico
TTITLE5=Get Out Of My Life Woman
TTITLE6=Ride Your Pony
TTITLE7=Confusion
TTITLE8=Holy Cow
TTITLE9=Don't Ever Leave Me
TTITLE10=Neighbours' Daughter
TTITLE11=A Little Dab A Doya
TTITLE12=The Kitty Cat Song
TTITLE13=Shortnin' Bread
TTITLE14=So Long
TTITLE15=People I Wish You Could See Me
TTITLE16=Work Work Work
TTITLE17=Here Comes The Hurt Again
TTITLE18=Hello Mama
TTITLE19=Feelin'
TTITLE20=My Old Car
TTITLE21=Everything I Do Gohn LBe Funky
EXTD=YEAR: 1987
EXTT0=
EXTT1=
EXTT2=
EXTT3=
EXTT4=
EXTT5=
EXTT6=
EXTT7=
EXTT8=
EXTT9=
EXTT10=
EXTT11=
EXTT12=
EXTT13=
EXTT14=
EXTT15=
EXTT16=
EXTT17=
EXTT18=
EXTT19=
EXTT20=
EXTT21=
PLAYORDER=
